<svg width="713" height="94" viewBox="0 0 713 94" fill="none" xmlns="http://www.w3.org/2000/svg">
<path d="M37.625 55.6982V90.0732C37.5 90.7607 37.125 91.1357 36.5625 91.1357H1.125C0.375 91.0107 0 90.6357 0 90.0732V5.01074C0.125 4.26074 0.5 3.88574 1.125 3.88574H28.875C29.1875 3.88574 29.4375 4.01074 29.625 4.19824L72.875 44.6982L115.812 4.26074C116.062 4.01074 116.312 3.88574 116.625 3.88574H144.812C145.5 4.01074 145.875 4.38574 145.875 5.01074V90.0732C145.75 90.7607 145.375 91.1357 144.812 91.1357H109C108.25 91.0107 107.875 90.6357 107.875 90.0732V55.6982L80.5625 80.5732C80.375 80.7607 80.125 80.8857 79.8125 80.8857H65.75C65.4375 80.8857 65.25 80.8232 65 80.6357L37.625 55.6982ZM236.625 55.6982C232.688 58.7607 228.062 62.0107 222.812 65.5107L220.438 67.0732H254.312C255.062 67.1982 255.438 67.5732 255.438 68.1357V90.0107C255.312 90.7607 254.938 91.1357 254.312 91.1357H166.25C165.5 91.0107 165.125 90.6357 165.125 90.0107V70.1357C165.125 69.7607 165.312 69.4482 165.625 69.1982L204.062 43.3857L209.938 39.5107C211.375 38.4482 212.562 37.1982 213.625 35.8232C214.438 34.7607 214.812 33.7607 214.812 32.8232C214.812 31.2607 214 29.9482 212.375 29.0107C210.438 27.8857 208 27.3232 205 27.3232C201.562 27.3232 197.688 28.0732 193.438 29.5107C189.125 31.0107 184.438 33.2607 179.312 36.2607C179.125 36.3232 178.938 36.3857 178.75 36.3857C178.5 36.3857 178.25 36.3232 178 36.1357L158.812 18.9482C158.688 18.8857 158.625 18.7607 158.562 18.6357C158.438 18.3857 158.375 18.1982 158.375 18.0107C158.375 17.6982 158.562 17.3857 158.875 17.1357C166.5 12.1982 174.5 8.51074 182.938 6.07324C191.312 3.63574 200.125 2.38574 209.312 2.38574C215.75 2.38574 221.625 3.01074 227.062 4.32324C232.5 5.63574 237.375 7.57324 241.688 10.2607C246.062 12.9482 249.375 15.8857 251.562 19.1357C253.75 22.4482 254.875 26.0732 254.875 30.0107C254.875 33.0107 254.188 35.9482 252.75 38.8857C251.375 41.6982 249.312 44.4482 246.562 47.1357C243.938 49.7607 240.625 52.6357 236.625 55.6982Z" fill="#FFD52E"/>
<path d="M335.646 92.9277C330.526 92.9277 325.406 92.2451 320.286 90.8797C315.251 89.5144 310.942 87.6797 307.358 85.3757V71.0397C310.686 73.4291 314.995 75.3491 320.286 76.7997C325.577 78.2504 330.825 78.9757 336.03 78.9757C340.553 78.9757 344.307 78.1651 347.294 76.5437C350.366 74.8371 351.902 72.0211 351.902 68.0957C351.902 64.9384 350.622 62.4211 348.062 60.5437C345.587 58.5811 340.723 56.6611 333.47 54.7837C323.827 52.3091 316.873 48.8531 312.606 44.4157C308.339 39.9784 306.206 34.3037 306.206 27.3917C306.206 25.3437 306.419 23.4237 306.846 21.6317C307.273 19.8397 307.87 18.1757 308.638 16.6397C309.406 15.0184 310.345 13.5677 311.454 12.2877C312.563 10.9224 313.801 9.68507 315.166 8.57574C316.617 7.38107 318.153 6.35707 319.774 5.50374C321.481 4.56507 323.273 3.75441 325.15 3.07174C327.113 2.38907 329.118 1.8344 331.166 1.40774C333.214 0.895739 335.305 0.554405 337.438 0.383736C339.657 0.127739 341.918 -0.000259399 344.222 -0.000259399C349.086 -0.000259399 353.822 0.511739 358.43 1.53574C363.123 2.55974 367.305 4.18107 370.974 6.39973V20.7357C367.475 18.6024 363.678 16.9384 359.582 15.7437C355.486 14.5491 351.433 13.9517 347.422 13.9517C341.79 13.9517 337.438 14.7624 334.366 16.3837C331.294 18.0051 329.758 20.5224 329.758 23.9357C329.758 26.7517 331.038 29.0557 333.598 30.8477C336.243 32.5544 341.619 34.4744 349.726 36.6077C359.198 39.3384 365.982 42.8371 370.078 47.1037C374.174 51.2851 376.222 57.0451 376.222 64.3837C376.222 66.5171 376.009 68.5651 375.582 70.5277C375.155 72.4051 374.515 74.1971 373.662 75.9037C372.809 77.5251 371.785 79.0611 370.59 80.5117C369.395 81.8771 368.03 83.1571 366.494 84.3517C365.043 85.5464 363.422 86.6131 361.63 87.5517C359.838 88.4051 357.918 89.1731 355.87 89.8557C353.907 90.5384 351.817 91.0931 349.598 91.5197C347.465 92.0317 345.203 92.3731 342.814 92.5437C340.51 92.7997 338.121 92.9277 335.646 92.9277ZM379.408 36.8637V23.5517H386.704V9.85574H412.176V23.5517H429.712V36.8637H412.176V70.7837C412.176 73.4291 412.731 75.4344 413.84 76.7997C414.949 78.1651 417.083 78.8477 420.24 78.8477C421.861 78.8477 423.397 78.6344 424.848 78.2077C426.299 77.7811 427.749 77.1411 429.2 76.2877V89.4717C427.408 90.4957 425.061 91.3491 422.16 92.0317C419.259 92.7144 415.845 93.0557 411.92 93.0557C403.813 93.0557 397.584 91.1784 393.232 87.4237C388.88 83.5837 386.704 78.4637 386.704 72.0637V36.8637H379.408ZM481.381 83.1997C479.248 85.8451 476.688 88.1491 473.701 90.1117C470.714 92.0744 466.661 93.0557 461.541 93.0557C454.458 93.0557 448.698 91.0931 444.261 87.1677C439.909 83.2424 437.733 77.5677 437.733 70.1437V23.5517H463.205V67.8397C463.205 71.0824 463.845 73.5144 465.125 75.1357C466.405 76.6717 468.794 77.4397 472.293 77.4397C474.938 77.4397 477.072 76.6717 478.693 75.1357C480.314 73.5997 481.125 71.1251 481.125 67.7117V23.5517H506.597V91.1357H483.429L481.637 83.1997H481.381ZM514.432 57.4717C514.432 54.6557 514.603 52.0104 514.944 49.5357C515.285 47.0611 515.797 44.7997 516.48 42.7517C517.163 40.6184 517.973 38.6984 518.912 36.9917C519.851 35.1997 520.917 33.5784 522.112 32.1277C523.307 30.6771 524.587 29.3971 525.952 28.2877C527.403 27.0931 528.896 26.1117 530.432 25.3437C531.968 24.4904 533.547 23.8077 535.168 23.2957C536.875 22.6984 538.581 22.2717 540.288 22.0157C542.08 21.7597 543.872 21.6317 545.664 21.6317C549.845 21.6317 553.6 22.3997 556.928 23.9357C560.256 25.4717 563.115 27.6904 565.504 30.5917V1.91974H591.232V91.1357H568.192L567.04 82.3037C564.736 85.7171 561.749 88.3624 558.08 90.2397C554.496 92.1171 550.272 93.0557 545.408 93.0557C543.616 93.0557 541.824 92.9277 540.032 92.6717C538.325 92.4157 536.619 91.9891 534.912 91.3917C533.291 90.8797 531.712 90.2397 530.176 89.4717C528.64 88.6184 527.189 87.6371 525.824 86.5277C524.459 85.4184 523.179 84.1811 521.984 82.8157C520.875 81.3651 519.851 79.7864 518.912 78.0797C517.973 76.2877 517.163 74.3251 516.48 72.1917C515.797 70.0584 515.285 67.7971 514.944 65.4077C514.603 62.9331 514.432 60.2877 514.432 57.4717ZM565.888 57.2157C565.888 49.0237 564.608 43.3917 562.048 40.3197C559.488 37.1624 556.501 35.5837 553.088 35.5837C549.675 35.5837 546.731 37.2051 544.256 40.4477C541.867 43.6051 540.672 49.2371 540.672 57.3437C540.672 65.4504 541.867 71.1251 544.256 74.3677C546.731 77.5251 549.675 79.1037 553.088 79.1037C556.501 79.1037 559.488 77.4824 562.048 74.2397C564.608 70.9971 565.888 65.3224 565.888 57.2157ZM614.545 18.6877C610.022 18.6877 606.566 17.9197 604.177 16.3837C601.788 14.7624 600.593 12.4584 600.593 9.47174C600.593 6.5704 601.788 4.3944 604.177 2.94374C606.566 1.40774 610.022 0.63974 614.545 0.63974C619.068 0.63974 622.566 1.40774 625.041 2.94374C627.601 4.3944 628.881 6.5704 628.881 9.47174C628.881 12.4584 627.601 14.7624 625.041 16.3837C622.566 17.9197 619.068 18.6877 614.545 18.6877ZM602.001 23.5517H627.473V91.1357H602.001V23.5517ZM674.219 93.0557C671.915 93.0557 669.654 92.8851 667.435 92.5437C665.216 92.2877 663.04 91.8611 660.907 91.2637C658.774 90.6664 656.726 89.9411 654.763 89.0877C652.886 88.2344 651.094 87.2104 649.387 86.0157C647.68 84.8211 646.102 83.4984 644.651 82.0477C643.2 80.5971 641.878 78.9757 640.683 77.1837C639.574 75.3917 638.592 73.4717 637.739 71.4237C636.971 69.3757 636.374 67.1997 635.947 64.8957C635.52 62.5064 635.307 59.9891 635.307 57.3437C635.307 54.6984 635.52 52.2237 635.947 49.9197C636.374 47.5304 636.971 45.3117 637.739 43.2637C638.592 41.2157 639.574 39.2957 640.683 37.5037C641.878 35.7117 643.2 34.0904 644.651 32.6397C646.102 31.1891 647.68 29.8664 649.387 28.6717C651.094 27.4771 652.886 26.4531 654.763 25.5997C656.726 24.7464 658.731 24.0211 660.779 23.4237C662.912 22.8264 665.088 22.3997 667.307 22.1437C669.526 21.8024 671.787 21.6317 674.091 21.6317C676.395 21.6317 678.656 21.8024 680.875 22.1437C683.094 22.3997 685.27 22.8264 687.403 23.4237C689.536 24.0211 691.542 24.7464 693.419 25.5997C695.382 26.4531 697.216 27.4771 698.923 28.6717C700.63 29.8664 702.208 31.1891 703.659 32.6397C705.11 34.0904 706.39 35.7117 707.499 37.5037C708.694 39.2957 709.675 41.2157 710.443 43.2637C711.296 45.3117 711.936 47.5304 712.363 49.9197C712.79 52.2237 713.003 54.6984 713.003 57.3437C713.003 59.9891 712.79 62.5064 712.363 64.8957C711.936 67.1997 711.296 69.3757 710.443 71.4237C709.675 73.4717 708.694 75.3917 707.499 77.1837C706.39 78.9757 705.11 80.5971 703.659 82.0477C702.208 83.4984 700.63 84.8211 698.923 86.0157C697.216 87.2104 695.382 88.2344 693.419 89.0877C691.542 89.9411 689.536 90.6664 687.403 91.2637C685.355 91.8611 683.222 92.2877 681.003 92.5437C678.784 92.8851 676.523 93.0557 674.219 93.0557ZM674.219 79.7437C678.144 79.7437 681.259 78.0371 683.563 74.6237C685.867 71.2104 687.019 65.4504 687.019 57.3437C687.019 49.1517 685.867 43.3491 683.563 39.9357C681.259 36.5224 678.144 34.8157 674.219 34.8157C670.294 34.8157 667.179 36.5224 664.875 39.9357C662.656 43.3491 661.547 49.1517 661.547 57.3437C661.547 65.4504 662.656 71.2104 664.875 74.6237C667.179 78.0371 670.294 79.7437 674.219 79.7437Z" fill="#FFD52E"/>
</svg>
